<svg width="500" height="444" viewBox="0 0 500 444" fill="none" xmlns="http://www.w3.org/2000/svg">
<path d="M100 41.5408V99.9286H59.9483V280.071H100V340.459H0.741455V41.5408H100Z" fill="black"/>
<path d="M400 41V99.3878H440.052V279.531H400V339.918H499.259V41H400Z" fill="black"/>
<path d="M252.775 204.752L282.265 255.83L368.226 206.201L269.96 36L218.686 65.6034L287.461 184.726L252.775 204.752Z" fill="black"/>
<path d="M196.37 352.675L180.846 294.739L274.593 269.62L300.613 366.725L244.316 381.809L233.821 342.64L196.37 352.675Z" fill="black"/>
<path d="M370.504 328.348L386.028 386.284L292.281 411.404L266.262 314.298L322.558 299.214L333.054 338.383L370.504 328.348Z" fill="black"/>
<path d="M139.524 327.531L124 269.595L217.747 244.476L243.766 341.581L187.469 356.666L176.974 317.496L139.524 327.531Z" fill="black"/>
<path d="M244.384 382.256L228.86 324.32L322.607 299.201L348.626 396.306L292.33 411.391L281.834 372.221L244.384 382.256Z" fill="black"/>
<path d="M205 102.5C205 120.449 190.449 135 172.5 135C154.551 135 140 120.449 140 102.5C140 84.5507 154.551 70 172.5 70C190.449 70 205 84.5507 205 102.5Z" fill="black"/>
<path d="M365 32.5C365 50.4493 350.449 65 332.5 65C314.551 65 300 50.4493 300 32.5C300 14.5507 314.551 0 332.5 0C350.449 0 365 14.5507 365 32.5Z" fill="black"/>
</svg>
