<?xml version="1.0" encoding="UTF-8"?>
<svg id="Layer_2" data-name="Layer 2" xmlns="http://www.w3.org/2000/svg" viewBox="0 0 140.37 153.37">
  <defs>z
    <style>
      .cls-1 {
        fill: #231f20;
      }
    </style>
  </defs>
  <g id="Layer_1-2" data-name="Layer 1">
    <path class="cls-1" d="M83.27,99.45l-6.28,1.1-5.69-15.14,5.88-3-14.77-61.58,18.38-4.99,16.65,66.92-7.11,13.5-7.05,3.19h0Z"/>
    <polyline class="cls-1" points="95.9 104.69 107.14 105.24 112.6 132.94 112.95 132.96 128.9 106.27 128.9 106.27 140.37 120.25 112.32 153.37 100.56 152.79 94.44 126.48 79.32 151.78 67.56 151.2 67.43 150.63 66.97 150.6 61.18 123.75 60.66 123.72 45.21 149.57 28.58 148.57 22.2 121.11 21.68 121.09 6.24 146.93 0 128.96 22.31 100.68 34.16 101.26 40.62 128.72 40.97 128.74 56.92 102.05 72.64 103.15 79.28 130.01"/>
    <polygon class="cls-1" points="42.11 31.94 30.73 28.07 26.86 17.07 30.91 5.94 42.35 2.25 53.88 6.22 57.75 17.31 53.71 28.15 42.11 31.94 42.11 31.94"/>
    <polygon class="cls-1" points="109.06 30.04 97.65 26.21 93.69 15.11 97.65 3.83 109.06 0 120.63 3.92 124.59 15.11 120.63 26.11 109.06 30.04 109.06 30.04"/>
  </g>
</svg>