<svg class="border" width="439px" height="119px" x="0px" y="0px" viewBox="0 0 439 119" xmlns="http://www.w3.org/2000/svg" version="1.1" style="transform: translate(0px, 0px); baseline-shift: 0px; clip-rule: nonzero; color: rgb(51, 51, 51); color-interpolation: srgb; color-interpolation-filters: linearrgb; color-rendering: auto; cursor: auto; direction: ltr; display: block; fill: rgb(0, 0, 0); fill-opacity: 1; fill-rule: nonzero; font: 400 14px / 21px Roboto, Arial, Helvetica, sans-serif; image-rendering: auto; letter-spacing: normal; marker: none; overflow: hidden; paint-order: normal; pointer-events: auto; shape-rendering: auto; stroke: none; stroke-dasharray: none; stroke-dashoffset: 0px; stroke-linecap: butt; stroke-linejoin: miter; stroke-miterlimit: 4; stroke-opacity: 1; stroke-width: 1px; text-anchor: start; text-rendering: auto; visibility: visible; word-spacing: 0px; writing-mode: horizontal-tb;" xmlns:xlink="http://www.w3.org/1999/xlink"><rect x="0" y="0" width="439" height="119" style="fill: rgb(255, 255, 255); baseline-shift: 0px; paint-order: normal;"></rect><g transform="translate(15, 15)" style="baseline-shift: 0px; paint-order: normal;"><rect x="0" y="0" width="2" height="61" style="baseline-shift: 0px; paint-order: normal;"></rect><rect x="3" y="0" width="1" height="61" style="baseline-shift: 0px; paint-order: normal;"></rect><rect x="6" y="0" width="1" height="61" style="baseline-shift: 0px; paint-order: normal;"></rect><rect x="11" y="0" width="1" height="61" style="baseline-shift: 0px; paint-order: normal;"></rect><rect x="14" y="0" width="2" height="61" style="baseline-shift: 0px; paint-order: normal;"></rect><rect x="20" y="0" width="1" height="61" style="baseline-shift: 0px; paint-order: normal;"></rect><rect x="22" y="0" width="1" height="61" style="baseline-shift: 0px; paint-order: normal;"></rect><rect x="25" y="0" width="4" height="61" style="baseline-shift: 0px; paint-order: normal;"></rect><rect x="30" y="0" width="1" height="61" style="baseline-shift: 0px; paint-order: normal;"></rect><rect x="33" y="0" width="1" height="61" style="baseline-shift: 0px; paint-order: normal;"></rect><rect x="36" y="0" width="4" height="61" style="baseline-shift: 0px; paint-order: normal;"></rect><rect x="41" y="0" width="1" height="61" style="baseline-shift: 0px; paint-order: normal;"></rect><rect x="44" y="0" width="1" height="61" style="baseline-shift: 0px; paint-order: normal;"></rect><rect x="46" y="0" width="1" height="61" style="baseline-shift: 0px; paint-order: normal;"></rect><rect x="49" y="0" width="4" height="61" style="baseline-shift: 0px; paint-order: normal;"></rect><rect x="55" y="0" width="1" height="61" style="baseline-shift: 0px; paint-order: normal;"></rect><rect x="57" y="0" width="4" height="61" style="baseline-shift: 0px; paint-order: normal;"></rect><rect x="63" y="0" width="1" height="61" style="baseline-shift: 0px; paint-order: normal;"></rect><rect x="66" y="0" width="3" height="61" style="baseline-shift: 0px; paint-order: normal;"></rect><rect x="71" y="0" width="1" height="61" style="baseline-shift: 0px; paint-order: normal;"></rect><rect x="74" y="0" width="2" height="61" style="baseline-shift: 0px; paint-order: normal;"></rect><rect x="77" y="0" width="1" height="61" style="baseline-shift: 0px; paint-order: normal;"></rect><rect x="79" y="0" width="3" height="61" style="baseline-shift: 0px; paint-order: normal;"></rect><rect x="84" y="0" width="2" height="61" style="baseline-shift: 0px; paint-order: normal;"></rect><rect x="88" y="0" width="1" height="61" style="baseline-shift: 0px; paint-order: normal;"></rect><rect x="90" y="0" width="3" height="61" style="baseline-shift: 0px; paint-order: normal;"></rect><rect x="95" y="0" width="2" height="61" style="baseline-shift: 0px; paint-order: normal;"></rect><rect x="99" y="0" width="4" height="61" style="baseline-shift: 0px; paint-order: normal;"></rect><rect x="105" y="0" width="1" height="61" style="baseline-shift: 0px; paint-order: normal;"></rect><rect x="107" y="0" width="1" height="61" style="baseline-shift: 0px; paint-order: normal;"></rect><rect x="110" y="0" width="4" height="61" style="baseline-shift: 0px; paint-order: normal;"></rect><rect x="116" y="0" width="1" height="61" style="baseline-shift: 0px; paint-order: normal;"></rect><rect x="118" y="0" width="1" height="61" style="baseline-shift: 0px; paint-order: normal;"></rect><rect x="121" y="0" width="4" height="61" style="baseline-shift: 0px; paint-order: normal;"></rect><rect x="127" y="0" width="1" height="61" style="baseline-shift: 0px; paint-order: normal;"></rect><rect x="129" y="0" width="1" height="61" style="baseline-shift: 0px; paint-order: normal;"></rect><rect x="132" y="0" width="1" height="61" style="baseline-shift: 0px; paint-order: normal;"></rect><rect x="135" y="0" width="2" height="61" style="baseline-shift: 0px; paint-order: normal;"></rect><rect x="139" y="0" width="3" height="61" style="baseline-shift: 0px; paint-order: normal;"></rect><rect x="143" y="0" width="4" height="61" style="baseline-shift: 0px; paint-order: normal;"></rect><rect x="148" y="0" width="3" height="61" style="baseline-shift: 0px; paint-order: normal;"></rect><rect x="152" y="0" width="1" height="61" style="baseline-shift: 0px; paint-order: normal;"></rect><rect x="154" y="0" width="1" height="61" style="baseline-shift: 0px; paint-order: normal;"></rect><rect x="157" y="0" width="1" height="61" style="baseline-shift: 0px; paint-order: normal;"></rect><rect x="159" y="0" width="2" height="61" style="baseline-shift: 0px; paint-order: normal;"></rect><rect x="165" y="0" width="1" height="61" style="baseline-shift: 0px; paint-order: normal;"></rect><rect x="168" y="0" width="1" height="61" style="baseline-shift: 0px; paint-order: normal;"></rect><rect x="171" y="0" width="4" height="61" style="baseline-shift: 0px; paint-order: normal;"></rect><rect x="176" y="0" width="2" height="61" style="baseline-shift: 0px; paint-order: normal;"></rect><rect x="182" y="0" width="1" height="61" style="baseline-shift: 0px; paint-order: normal;"></rect><rect x="185" y="0" width="1" height="61" style="baseline-shift: 0px; paint-order: normal;"></rect><rect x="187" y="0" width="1" height="61" style="baseline-shift: 0px; paint-order: normal;"></rect><rect x="190" y="0" width="2" height="61" style="baseline-shift: 0px; paint-order: normal;"></rect><rect x="196" y="0" width="1" height="61" style="baseline-shift: 0px; paint-order: normal;"></rect><rect x="198" y="0" width="1" height="61" style="baseline-shift: 0px; paint-order: normal;"></rect><rect x="201" y="0" width="1" height="61" style="baseline-shift: 0px; paint-order: normal;"></rect><rect x="203" y="0" width="2" height="61" style="baseline-shift: 0px; paint-order: normal;"></rect><rect x="209" y="0" width="4" height="61" style="baseline-shift: 0px; paint-order: normal;"></rect><rect x="214" y="0" width="3" height="61" style="baseline-shift: 0px; paint-order: normal;"></rect><rect x="218" y="0" width="1" height="61" style="baseline-shift: 0px; paint-order: normal;"></rect><rect x="220" y="0" width="1" height="61" style="baseline-shift: 0px; paint-order: normal;"></rect><rect x="222" y="0" width="2" height="61" style="baseline-shift: 0px; paint-order: normal;"></rect><rect x="228" y="0" width="1" height="61" style="baseline-shift: 0px; paint-order: normal;"></rect><rect x="231" y="0" width="1" height="61" style="baseline-shift: 0px; paint-order: normal;"></rect><rect x="234" y="0" width="1" height="61" style="baseline-shift: 0px; paint-order: normal;"></rect><rect x="236" y="0" width="2" height="61" style="baseline-shift: 0px; paint-order: normal;"></rect><rect x="242" y="0" width="1" height="61" style="baseline-shift: 0px; paint-order: normal;"></rect><rect x="247" y="0" width="2" height="61" style="baseline-shift: 0px; paint-order: normal;"></rect><rect x="250" y="0" width="1" height="61" style="baseline-shift: 0px; paint-order: normal;"></rect><rect x="253" y="0" width="1" height="61" style="baseline-shift: 0px; paint-order: normal;"></rect><rect x="256" y="0" width="1" height="61" style="baseline-shift: 0px; paint-order: normal;"></rect><rect x="259" y="0" width="4" height="61" style="baseline-shift: 0px; paint-order: normal;"></rect><rect x="264" y="0" width="1" height="61" style="baseline-shift: 0px; paint-order: normal;"></rect><rect x="267" y="0" width="2" height="61" style="baseline-shift: 0px; paint-order: normal;"></rect><rect x="270" y="0" width="1" height="61" style="baseline-shift: 0px; paint-order: normal;"></rect><rect x="275" y="0" width="1" height="61" style="baseline-shift: 0px; paint-order: normal;"></rect><rect x="278" y="0" width="1" height="61" style="baseline-shift: 0px; paint-order: normal;"></rect><rect x="281" y="0" width="4" height="61" style="baseline-shift: 0px; paint-order: normal;"></rect><rect x="286" y="0" width="1" height="61" style="baseline-shift: 0px; paint-order: normal;"></rect><rect x="290" y="0" width="4" height="61" style="baseline-shift: 0px; paint-order: normal;"></rect><rect x="295" y="0" width="1" height="61" style="baseline-shift: 0px; paint-order: normal;"></rect><rect x="297" y="0" width="1" height="61" style="baseline-shift: 0px; paint-order: normal;"></rect><rect x="300" y="0" width="4" height="61" style="baseline-shift: 0px; paint-order: normal;"></rect><rect x="306" y="0" width="1" height="61" style="baseline-shift: 0px; paint-order: normal;"></rect><rect x="308" y="0" width="2" height="61" style="baseline-shift: 0px; paint-order: normal;"></rect><rect x="314" y="0" width="1" height="61" style="baseline-shift: 0px; paint-order: normal;"></rect><rect x="316" y="0" width="1" height="61" style="baseline-shift: 0px; paint-order: normal;"></rect><rect x="319" y="0" width="1" height="61" style="baseline-shift: 0px; paint-order: normal;"></rect><rect x="324" y="0" width="1" height="61" style="baseline-shift: 0px; paint-order: normal;"></rect><rect x="327" y="0" width="2" height="61" style="baseline-shift: 0px; paint-order: normal;"></rect><rect x="330" y="0" width="1" height="61" style="baseline-shift: 0px; paint-order: normal;"></rect><rect x="332" y="0" width="4" height="61" style="baseline-shift: 0px; paint-order: normal;"></rect><rect x="338" y="0" width="1" height="61" style="baseline-shift: 0px; paint-order: normal;"></rect><rect x="341" y="0" width="1" height="61" style="baseline-shift: 0px; paint-order: normal;"></rect><rect x="344" y="0" width="2" height="61" style="baseline-shift: 0px; paint-order: normal;"></rect><rect x="348" y="0" width="3" height="61" style="baseline-shift: 0px; paint-order: normal;"></rect><rect x="352" y="0" width="1" height="61" style="baseline-shift: 0px; paint-order: normal;"></rect><rect x="357" y="0" width="1" height="61" style="baseline-shift: 0px; paint-order: normal;"></rect><rect x="359" y="0" width="2" height="61" style="baseline-shift: 0px; paint-order: normal;"></rect><rect x="363" y="0" width="1" height="61" style="baseline-shift: 0px; paint-order: normal;"></rect><rect x="366" y="0" width="1" height="61" style="baseline-shift: 0px; paint-order: normal;"></rect><rect x="368" y="0" width="2" height="61" style="baseline-shift: 0px; paint-order: normal;"></rect><rect x="374" y="0" width="1" height="61" style="baseline-shift: 0px; paint-order: normal;"></rect><rect x="376" y="0" width="3" height="61" style="baseline-shift: 0px; paint-order: normal;"></rect><rect x="381" y="0" width="2" height="61" style="baseline-shift: 0px; paint-order: normal;"></rect><rect x="385" y="0" width="1" height="61" style="baseline-shift: 0px; paint-order: normal;"></rect><rect x="387" y="0" width="4" height="61" style="baseline-shift: 0px; paint-order: normal;"></rect><rect x="394" y="0" width="1" height="61" style="baseline-shift: 0px; paint-order: normal;"></rect><rect x="396" y="0" width="2" height="61" style="baseline-shift: 0px; paint-order: normal;"></rect><rect x="401" y="0" width="3" height="61" style="baseline-shift: 0px; paint-order: normal;"></rect><rect x="405" y="0" width="1" height="61" style="baseline-shift: 0px; paint-order: normal;"></rect><rect x="407" y="0" width="2" height="61" style="baseline-shift: 0px; paint-order: normal;"></rect><text style="font-kerning: auto; font-optical-sizing: auto; font-feature-settings: normal; font-variation-settings: normal; font-size: 20px; line-height: normal; font-family: Verdana; baseline-shift: 0px; display: block; paint-order: normal; text-anchor: middle;" text-anchor="middle" x="204.5" y="89">https://www.markhamfairgrounds.ca/</text></g></svg>