<?xml version="1.0" encoding="UTF-8"?>
<svg id="Layer_2" data-name="Layer 2" xmlns="http://www.w3.org/2000/svg" viewBox="0 0 160.17 147.19">
  <defs>
    <style>
      .cls-1 {
        fill: #231f20;
      }

      .cls-1, .cls-2 {
        stroke-width: 0px;
      }

      .cls-2 {
        fill: #7dc468;
      }
    </style>
  </defs>
  <g id="Layer_1-2" data-name="Layer 1">
    <polygon class="cls-2" points="0 21.22 0 32.36 0 92.46 0 105.27 15.31 105.27 24.69 105.27 24.69 92.46 15.31 92.46 15.31 32.36 24.69 32.36 24.69 19.76 0 19.76 0 21.22"/>
    <circle class="cls-1" cx="55.35" cy="27.97" r="10" transform="translate(16.69 76.46) rotate(-78.24)"/>
    <circle class="cls-1" cx="109.3" cy="10" r="10"/>
    <polygon class="cls-1" points="81.6 73.7 86.83 89.87 113.34 81.31 118.29 69.33 88.32 11.14 73.21 18.92 98.59 68.21 81.6 73.7"/>
    <polygon class="cls-1" points="115.7 124.03 114.02 101.2 102.11 98.12 88.76 118.46 86.98 94.19 75.06 91.1 62.51 110.24 60.94 88.86 49.31 85.37 28.55 112.24 38.84 120.19 49.22 106.75 50.95 130.31 62.86 133.4 75.42 114.26 77.2 138.53 89.11 141.62 102.46 121.27 104.14 144.1 116.05 147.19 136.73 115.66 125.86 108.53 115.7 124.03"/>
    <polygon class="cls-2" points="135.48 19.76 135.48 32.36 144.86 32.36 144.86 92.46 135.48 92.46 135.48 105.27 144.86 105.27 160.17 105.27 160.17 92.46 160.17 32.36 160.17 21.22 160.17 19.76 135.48 19.76"/>
  </g>
</svg>